Coordinates
version=1
nRows=17
nColumns=24
inDegrees=yes

Units are S.I. units (second, meters, Newtons, ...)
Angles are in degrees.

endheader
time	pelvis_tilt	pelvis_list	pelvis_rotation	pelvis_tx	pelvis_ty	pelvis_tz	hip_flexion_r	hip_adduction_r	hip_rotation_r	knee_angle_r	ankle_angle_r	subtalar_angle_r	mtp_angle_r	hip_flexion_l	hip_adduction_l	hip_rotation_l	knee_angle_l	ankle_angle_l	subtalar_angle_l	mtp_angle_l	lumbar_extension	lumbar_bending	lumbar_rotation
      1.05700000	      3.32784480	     -4.39162338	      5.60258725	      0.51957246	      1.01769172	      0.33837159	      3.47295574	      8.52616189	      0.55801762	    -15.77850745	      8.62249720	     -9.54144042	     -2.75721357	     13.09823000	     -4.84815849	      3.88448683	    -69.84280908	      1.81729463	     -2.42489403	      0.31455406	    -14.25159930	     14.47559883	     -3.18111207
      1.06116667	      3.39145667	     -4.21932915	      5.44390047	      0.52419601	      1.01855205	      0.33881838	      2.84172085	      8.41515362	      0.85871682	    -15.25811214	      8.59106704	     -9.68179886	     -2.74031162	     13.58532367	     -4.73923826	      3.71330628	    -69.47954864	      2.45656402	     -2.10686485	      0.22546624	    -14.39097328	     14.18452669	     -2.80699057
      1.06533333	      3.40628860	     -4.02868312	      5.27434822	      0.52879009	      1.01932988	      0.33925214	      2.27735093	      8.27318234	      1.16189826	    -14.76307871	      8.47135455	     -9.85594332	     -2.70413536	     14.10927423	     -4.59523108	      3.54371597	    -69.06381448	      3.03322724	     -1.91524002	      0.01073943	    -14.48546658	     13.86361957	     -2.50965126
      1.06950000	      3.43165486	     -3.80435863	      5.10202048	      0.53335814	      1.02006662	      0.33964232	      1.73617736	      8.07942471	      1.39025302	    -14.35350345	      8.49472635	     -9.82739702	     -2.69282010	     14.60239444	     -4.41011971	      3.37398325	    -68.59847386	      3.60770925	     -1.69096670	     -0.03633009	    -14.59222151	     13.53545066	     -2.38541631
      1.07366667	      3.49621186	     -3.61791682	      4.93503235	      0.53798805	      1.02082800	      0.34003727	      1.11508673	      7.93292426	      1.66518083	    -13.85611345	      8.47461913	     -9.92747122	     -2.67756110	     15.03903555	     -4.28500626	      3.19539858	    -68.08506376	      4.13713402	     -1.47758283	     -0.13206258	    -14.72026091	     13.23317639	     -2.05783952
      1.07783333	      3.52827227	     -3.42654381	      4.76161936	      0.54258171	      1.02149789	      0.34041512	      0.54646795	      7.77109982	      1.93522955	    -13.38978183	      8.43958857	    -10.00628832	     -2.66356982	     15.50034236	     -4.14250801	      3.02727333	    -67.53191463	      4.61618774	     -1.32040810	     -0.22521667	    -14.82469429	     12.92784700	     -1.82123129
      1.08200000	      3.57211620	     -3.22918389	      4.58428970	      0.54716753	      1.02214169	      0.34077534	     -0.03121906	      7.59655637	      2.19990438	    -12.93031505	      8.41528276	    -10.06210658	     -2.65015410	     15.93172463	     -3.99079186	      2.86319003	    -66.93200453	      5.05347497	     -1.20327884	     -0.31945444	    -14.94716794	     12.62447202	     -1.58978145
      1.08616667	      3.61426704	     -3.03442962	      4.40788746	      0.55177888	      1.02275693	      0.34111623	     -0.60930530	      7.41815121	      2.44998466	    -12.46678777	      8.38923141	    -10.10694198	     -2.63671635	     16.34705998	     -3.84238798	      2.69861755	    -66.28207632	      5.44692805	     -1.13108912	     -0.42024568	    -15.05092946	     12.31763908	     -1.35697472
      1.09033333	      3.62968886	     -2.81740661	      4.21844941	      0.55637271	      1.02330220	      0.34142288	     -1.13642994	      7.20209735	      2.67534807	    -12.05173274	      8.37815299	    -10.08390997	     -2.62810739	     16.76866598	     -3.65334578	      2.54634711	    -65.58000790	      5.79670040	     -1.09365514	     -0.48072072	    -15.12694023	     12.02347025	     -1.20885076
      1.09450000	      3.70582228	     -2.63751275	      4.04091053	      0.56098847	      1.02386602	      0.34174907	     -1.75779806	      7.03245459	      2.92883667	    -11.56768689	      8.38415439	    -10.12653556	     -2.61567931	     17.11918630	     -3.52281536	      2.39326800	    -64.84988663	      6.09658325	     -1.08632365	     -0.58115762	    -15.27745828	     11.71606568	     -0.91161500
      1.09866667	      3.70448965	     -2.43806330	      3.84530554	      0.56560178	      1.02430794	      0.34204006	     -2.26208817	      6.82207411	      3.13324919	    -11.15488933	      8.36407667	    -10.07780294	     -2.60916687	     17.52959080	     -3.35151621	      2.24882392	    -64.06772790	      6.37852779	     -1.10380671	     -0.63394120	    -15.31953798	     11.43702077	     -0.78422760
      1.10283333	      3.80602308	     -2.24638103	      3.66400334	      0.57020765	      1.02483390	      0.34232848	     -2.90750768	      6.62752331	      3.36771649	    -10.67604731	      8.40054208	    -10.08606661	     -2.59717919	     17.81430305	     -3.19579106	      2.12041740	    -63.24132932	      6.57571299	     -1.18299249	     -0.73349578	    -15.50613392	     11.12939389	     -0.48273585
      1.10700000	      3.84734869	     -2.06419795	      3.47326795	      0.57482942	      1.02523333	      0.34259788	     -3.46855292	      6.43016855	      3.58166802	    -10.23647186	      8.41677014	    -10.05478242	     -2.58513680	     18.14900902	     -3.04042792	      2.00343842	    -62.38172803	      6.76396294	     -1.26711353	     -0.83220321	    -15.60487607	     10.85031137	     -0.25472198
      1.11116667	      3.85985424	     -1.87494939	      3.27257246	      0.57946044	      1.02556861	      0.34284784	     -3.98320545	      6.21390313	      3.76572319	     -9.82735499	      8.41373497	     -9.97222525	     -2.57786337	     18.49225275	     -2.87061550	      1.89306537	    -61.47392845	      6.92853569	     -1.35716955	     -0.89239169	    -15.65609114	     10.58783982	     -0.11223946
      1.11533333	      3.89873121	     -1.68673601	      3.07582730	      0.58408943	      1.02589561	      0.34308902	     -4.53300298	      5.99682343	      3.94863163	     -9.40270889	      8.45072592	     -9.89311771	     -2.56996937	     18.79012548	     -2.69906020	      1.79726920	    -60.52385258	      7.03196251	     -1.50690895	     -0.95808652	    -15.74982243	     10.30522922	      0.08968431
      1.11950000	      3.97764921	     -1.52404616	      2.89760557	      0.58871170	      1.02620380	      0.34330475	     -5.13611509	      5.80663379	      4.12363716	     -8.95205215	      8.52583778	     -9.81570690	     -2.55847061	     19.03863882	     -2.55048845	      1.73599656	    -59.55004679	      7.08463516	     -1.69846465	     -1.05189385	    -15.90041517	     10.03809341	      0.37010405
      1.12366667	      4.02349097	     -1.35693203	      2.70227244	      0.59334380	      1.02644036	      0.34352347	     -5.68659127	      5.60220215	      4.28788618	     -8.53558916	      8.57521204	     -9.70840837	     -2.54676285	     19.29910081	     -2.39463100	      1.67519923	    -58.53078431	      7.13075531	     -1.88208906	     -1.14794459	    -16.00197102	      9.78081175	      0.59507369
